<svg id="visual" viewBox="0 0 900 600" width="900" height="600" xmlns="http://www.w3.org/2000/svg" xmlns:xlink="http://www.w3.org/1999/xlink" version="1.1"><path d="M0 207L21.5 226.7C43 246.3 86 285.7 128.8 309.2C171.7 332.7 214.3 340.3 257.2 347.7C300 355 343 362 385.8 345.7C428.7 329.3 471.3 289.7 514.2 261C557 232.3 600 214.7 642.8 228.7C685.7 242.7 728.3 288.3 771.2 295.5C814 302.7 857 271.3 878.5 255.7L900 240L900 601L878.5 601C857 601 814 601 771.2 601C728.3 601 685.7 601 642.8 601C600 601 557 601 514.2 601C471.3 601 428.7 601 385.8 601C343 601 300 601 257.2 601C214.3 601 171.7 601 128.8 601C86 601 43 601 21.5 601L0 601Z" fill="#101010" stroke-linecap="round" stroke-linejoin="miter"></path></svg>